<svg id="visual" viewBox="0 0 900 600" width="900" height="600" xmlns="http://www.w3.org/2000/svg" xmlns:xlink="http://www.w3.org/1999/xlink" version="1.1"><path d="M0 145L13.7 143C27.3 141 54.7 137 82 139C109.3 141 136.7 149 163.8 157C191 165 218 173 245.2 168C272.3 163 299.7 145 327 151C354.3 157 381.7 187 409 201C436.3 215 463.7 213 491 200C518.3 187 545.7 163 573 146C600.3 129 627.7 119 654.8 108C682 97 709 85 736.2 89C763.3 93 790.7 113 818 135C845.3 157 872.7 181 886.3 193L900 205L900 0L886.3 0C872.7 0 845.3 0 818 0C790.7 0 763.3 0 736.2 0C709 0 682 0 654.8 0C627.7 0 600.3 0 573 0C545.7 0 518.3 0 491 0C463.7 0 436.3 0 409 0C381.7 0 354.3 0 327 0C299.7 0 272.3 0 245.2 0C218 0 191 0 163.8 0C136.7 0 109.3 0 82 0C54.7 0 27.3 0 13.7 0L0 0Z" fill="#b8c0f3"></path><path d="M0 193L13.7 193C27.3 193 54.7 193 82 200C109.3 207 136.7 221 163.8 226C191 231 218 227 245.2 219C272.3 211 299.7 199 327 209C354.3 219 381.7 251 409 268C436.3 285 463.7 287 491 276C518.3 265 545.7 241 573 225C600.3 209 627.7 201 654.8 188C682 175 709 157 736.2 154C763.3 151 790.7 163 818 178C845.3 193 872.7 211 886.3 220L900 229L900 203L886.3 191C872.7 179 845.3 155 818 133C790.7 111 763.3 91 736.2 87C709 83 682 95 654.8 106C627.7 117 600.3 127 573 144C545.7 161 518.3 185 491 198C463.7 211 436.3 213 409 199C381.7 185 354.3 155 327 149C299.7 143 272.3 161 245.2 166C218 171 191 163 163.8 155C136.7 147 109.3 139 82 137C54.7 135 27.3 139 13.7 141L0 143Z" fill="#acb4f0"></path><path d="M0 271L13.7 279C27.3 287 54.7 303 82 311C109.3 319 136.7 319 163.8 321C191 323 218 327 245.2 325C272.3 323 299.7 315 327 331C354.3 347 381.7 387 409 395C436.3 403 463.7 379 491 368C518.3 357 545.7 359 573 347C600.3 335 627.7 309 654.8 292C682 275 709 267 736.2 265C763.3 263 790.7 267 818 269C845.3 271 872.7 271 886.3 271L900 271L900 227L886.3 218C872.7 209 845.3 191 818 176C790.7 161 763.3 149 736.2 152C709 155 682 173 654.8 186C627.7 199 600.3 207 573 223C545.7 239 518.3 263 491 274C463.7 285 436.3 283 409 266C381.7 249 354.3 217 327 207C299.7 197 272.3 209 245.2 217C218 225 191 229 163.8 224C136.7 219 109.3 205 82 198C54.7 191 27.3 191 13.7 191L0 191Z" fill="#a1a9ed"></path><path d="M0 451L13.7 448C27.3 445 54.7 439 82 436C109.3 433 136.7 433 163.8 445C191 457 218 481 245.2 484C272.3 487 299.7 469 327 473C354.3 477 381.7 503 409 499C436.3 495 463.7 461 491 451C518.3 441 545.7 455 573 459C600.3 463 627.7 457 654.8 452C682 447 709 443 736.2 440C763.3 437 790.7 435 818 436C845.3 437 872.7 441 886.3 443L900 445L900 269L886.3 269C872.7 269 845.3 269 818 267C790.7 265 763.3 261 736.2 263C709 265 682 273 654.8 290C627.7 307 600.3 333 573 345C545.7 357 518.3 355 491 366C463.7 377 436.3 401 409 393C381.7 385 354.3 345 327 329C299.7 313 272.3 321 245.2 323C218 325 191 321 163.8 319C136.7 317 109.3 317 82 309C54.7 301 27.3 285 13.7 277L0 269Z" fill="#939be6"></path><path d="M0 475L13.7 483C27.3 491 54.7 507 82 515C109.3 523 136.7 523 163.8 526C191 529 218 535 245.2 535C272.3 535 299.7 529 327 534C354.3 539 381.7 555 409 551C436.3 547 463.7 523 491 517C518.3 511 545.7 523 573 530C600.3 537 627.7 539 654.8 532C682 525 709 509 736.2 505C763.3 501 790.7 509 818 509C845.3 509 872.7 501 886.3 497L900 493L900 443L886.3 441C872.7 439 845.3 435 818 434C790.7 433 763.3 435 736.2 438C709 441 682 445 654.8 450C627.7 455 600.3 461 573 457C545.7 453 518.3 439 491 449C463.7 459 436.3 493 409 497C381.7 501 354.3 475 327 471C299.7 467 272.3 485 245.2 482C218 479 191 455 163.8 443C136.7 431 109.3 431 82 434C54.7 437 27.3 443 13.7 446L0 449Z" fill="#838bdd"></path><path d="M0 601L13.7 601C27.3 601 54.7 601 82 601C109.3 601 136.7 601 163.8 601C191 601 218 601 245.2 601C272.3 601 299.7 601 327 601C354.3 601 381.7 601 409 601C436.3 601 463.7 601 491 601C518.3 601 545.7 601 573 601C600.3 601 627.7 601 654.8 601C682 601 709 601 736.2 601C763.3 601 790.7 601 818 601C845.3 601 872.7 601 886.3 601L900 601L900 491L886.3 495C872.7 499 845.3 507 818 507C790.7 507 763.3 499 736.2 503C709 507 682 523 654.8 530C627.7 537 600.3 535 573 528C545.7 521 518.3 509 491 515C463.7 521 436.3 545 409 549C381.7 553 354.3 537 327 532C299.7 527 272.3 533 245.2 533C218 533 191 527 163.8 524C136.7 521 109.3 521 82 513C54.7 505 27.3 489 13.7 481L0 473Z" fill="#747bd4"></path></svg>